# xmcd
#
# Track frame offsets: 
#        150
#        25450
#        51187
#        78667
#        124120
#        156270
#        184005
#        210037
#        229860
#        253567
#
# Disc length: 3666 seconds
#
# Revision: 2
# Processed by: cddbd v1.5.2PL0 Copyright (c) Steve Scherf et al.
# Submitted via: ExactAudioCopy v0.90b4
#
DISCID=7e0e500a
DTITLE=JAZZ FOR Collection - Jazz for a Coffee Break
DYEAR=2005
DGENRE=Jazz
TTITLE0=Eliane Elias - Cross Current
TTITLE1=Pat Martino - Road Song
TTITLE2=Cannonball Adderley - Bohemia After Dark
TTITLE3=Woody Shaw - It Might as Well Be Spring
TTITLE4=Grant Green - Samba de Orpheus
TTITLE5=Bobby Hutcherson - Nascimento
TTITLE6=Randy Brecker - No Scratch
TTITLE7=Curtis Fuller - Sis
TTITLE8=Peter Erskine - In Walked Maya (feat. John Abercrombie)
TTITLE9=Larry Coryell - The Duke
EXTD=
EXTT0=
EXTT1=
EXTT2=
EXTT3=
EXTT4=
EXTT5=
EXTT6=
EXTT7=
EXTT8=
EXTT9=
PLAYORDER=
